# xmcd
#
# Track frame offsets:
#	150
#	17005
#	28170
#
# Disc length: 561 seconds
#
# Revision: 2
# Processed by: cddbd v1.5.1PL2 Copyright (c) Steve Scherf et al.
# Submitted via: EasyCDDAExtractor 5.0.6
#
DISCID=1b022f03
DTITLE=Rogue Wave - Publish My Love (Single)
DYEAR=2006
DGENRE=Indie Rock
TTITLE0=Publish My Love
TTITLE1=Eyes
TTITLE2=Manna
EXTD=
EXTT0=
EXTT1=
EXTT2=
PLAYORDER=
